<svg width="875" height="189" viewBox="0 0 875 189" fill="none" xmlns="http://www.w3.org/2000/svg">
<path d="M3.51121 148C1.5243 148 0.530845 147.271 0.530845 145.814C0.530845 144.622 1.39184 143.827 3.11383 143.43L5.49813 143.033C8.27981 142.503 10.068 141.708 10.8628 140.648C11.79 139.456 12.2536 137.469 12.2536 134.688V67.9274C12.2536 65.5431 11.8562 63.9536 11.0615 63.1588C10.3992 62.2316 9.1408 61.6355 7.28635 61.3706L3.11383 60.7745C1.39184 60.6421 0.530845 59.9135 0.530845 58.5889C0.530845 57.5292 1.59053 56.8007 3.70991 56.4033C7.81619 55.741 10.929 54.6813 13.0484 53.2243C15.3002 51.7672 17.6183 49.979 20.0026 47.8596C21.1947 46.6674 22.1882 46.0714 22.983 46.0714C24.1751 46.0714 24.7712 46.8661 24.7712 48.4557V57.3968C24.7712 58.324 25.1686 59.0525 25.9633 59.5824C26.7581 59.9798 27.6191 59.7148 28.5463 58.7876C33.9772 53.6216 38.6796 50.1114 42.6534 48.257C46.7597 46.4025 50.866 45.4753 54.9723 45.4753C58.8136 45.4753 62.1914 46.535 65.1055 48.6544C68.1521 50.6413 70.4039 53.6879 71.861 57.7942C72.2584 58.8538 72.9207 59.5161 73.8479 59.7811C74.9076 59.9135 75.9011 59.5161 76.8283 58.5889C82.2592 53.5554 86.9616 50.1114 90.9354 48.257C94.9092 46.4025 98.9493 45.4753 103.056 45.4753C108.619 45.4753 113.123 47.5947 116.567 51.8334C120.143 55.9397 121.931 62.0329 121.931 70.113V134.688C121.931 137.469 122.329 139.456 123.123 140.648C124.051 141.708 125.905 142.437 128.687 142.834L133.058 143.43C134.515 143.695 135.244 144.49 135.244 145.814C135.244 147.271 134.449 148 132.859 148H98.883C97.0286 148 96.1014 147.271 96.1014 145.814C96.1014 144.49 96.8299 143.695 98.287 143.43L101.069 143.033C104.115 142.635 106.102 141.841 107.029 140.648C107.957 139.456 108.42 137.469 108.42 134.688V72.2986C108.42 65.808 107.228 61.2381 104.844 58.5889C102.592 55.9397 99.4791 54.6151 95.5053 54.6151C91.5315 54.6151 87.8888 55.8735 84.5773 58.3902C81.3982 60.7745 78.8152 64.0198 76.8283 68.1261C74.8414 72.0999 73.8479 76.5374 73.8479 81.4384V134.688C73.8479 137.469 74.3115 139.456 75.2388 140.648C76.166 141.708 78.0867 142.437 81.0008 142.834L85.372 143.43C86.8291 143.695 87.5576 144.49 87.5576 145.814C87.5576 147.271 86.7629 148 85.1733 148H51.3958C49.5414 148 48.6141 147.271 48.6141 145.814C48.6141 144.49 49.3427 143.695 50.7997 143.43L53.5814 143.033C56.3631 142.635 58.1513 141.841 58.9461 140.648C59.8733 139.456 60.3369 137.469 60.3369 134.688V72.2986C60.3369 65.808 59.1448 61.2381 56.7605 58.5889C54.5086 55.9397 51.3958 54.6151 47.422 54.6151C43.4482 54.6151 39.8055 55.8735 36.494 58.3902C33.3149 60.7745 30.7319 64.0198 28.745 68.1261C26.7581 72.0999 25.7646 76.5374 25.7646 81.4384V134.688C25.7646 137.469 26.162 139.456 26.9568 140.648C27.884 141.841 29.7385 142.569 32.5201 142.834L37.8848 143.43C39.3419 143.695 40.0704 144.424 40.0704 145.616C40.0704 147.205 39.077 148 37.09 148H3.51121ZM153.345 149.788C147.781 149.788 143.211 148.066 139.635 144.622C136.058 141.046 134.27 136.343 134.27 130.515C134.27 124.819 136.058 119.455 139.635 114.421C143.211 109.255 148.112 104.619 154.338 100.513C160.564 96.4065 167.65 93.095 175.598 90.5782C177.32 90.0484 178.181 88.9225 178.181 87.2005V69.1196C178.181 62.7614 177.188 58.2578 175.201 55.6085C173.214 52.8269 170.498 51.436 167.054 51.436C163.743 51.436 160.696 52.9593 157.915 56.0059C155.265 58.9201 153.345 63.8874 152.152 70.9078C151.49 75.1465 150.033 78.2594 147.781 80.2463C145.662 82.1007 143.476 83.0279 141.224 83.0279C137.516 83.0279 135.661 81.1735 135.661 77.4646C135.661 73.6232 136.721 69.8481 138.84 66.1392C141.092 62.2978 144.006 58.8538 147.583 55.8072C151.159 52.6282 155.067 50.1114 159.305 48.257C163.544 46.4025 167.783 45.4753 172.022 45.4753C185.135 45.4753 191.692 53.0918 191.692 68.3248V129.124C191.692 134.688 193.083 137.469 195.865 137.469C197.587 137.469 199.176 136.343 200.633 134.092C202.09 131.707 202.819 127.733 202.819 122.17C202.819 120.051 203.68 118.991 205.402 118.991C206.991 118.991 207.786 120.117 207.786 122.369C207.786 132.038 206.064 139.059 202.62 143.43C199.309 147.669 195.533 149.788 191.295 149.788C188.116 149.788 185.599 148.53 183.744 146.013C181.89 143.364 180.632 140.251 179.969 136.675C179.837 135.35 179.241 134.688 178.181 134.688C177.254 134.555 176.327 135.151 175.399 136.476C172.22 140.847 168.975 144.159 165.663 146.41C162.352 148.662 158.246 149.788 153.345 149.788ZM158.709 140.648C162.153 140.648 165.332 139.456 168.246 137.072C171.161 134.555 173.545 131.244 175.399 127.137C177.254 123.031 178.181 118.395 178.181 113.229V98.7246C178.181 96.2078 176.79 95.4793 174.009 96.539C165.928 99.4531 159.637 103.493 155.133 108.659C150.762 113.693 148.576 119.786 148.576 126.939C148.576 136.079 151.954 140.648 158.709 140.648ZM213.913 188.732C210.336 188.732 207.489 187.473 205.369 184.957C203.25 182.572 202.19 179.791 202.19 176.612C202.19 174.095 202.919 171.975 204.376 170.253C205.833 168.531 207.82 167.67 210.336 167.67C212.456 167.67 213.979 168.134 214.906 169.061C215.834 169.989 216.496 171.048 216.893 172.24C217.291 173.432 217.688 174.492 218.085 175.419C218.483 176.347 219.278 176.81 220.47 176.81C221.927 176.81 223.251 175.751 224.444 173.631C225.636 171.644 227.291 167.339 229.411 160.716C230.735 156.742 231.53 153.298 231.795 150.384C232.192 147.47 232.126 144.357 231.596 141.046C231.199 137.734 230.206 133.694 228.616 128.926L206.959 59.9798C206.031 56.8007 205.104 54.7476 204.177 53.8203C203.382 52.8931 202.058 52.2308 200.203 51.8334L197.223 51.2373C195.501 50.84 194.64 49.979 194.64 48.6544C194.64 47.3297 195.567 46.6674 197.421 46.6674H230.206C232.06 46.6674 232.987 47.3297 232.987 48.6544C232.987 50.1114 232.126 50.9724 230.404 51.2373L227.225 51.6347C224.046 52.0321 221.993 52.8269 221.066 54.019C220.271 55.0787 220.337 57.0656 221.264 59.9798L238.749 118.196C239.147 119.521 239.743 120.183 240.538 120.183C241.465 120.183 242.127 119.521 242.524 118.196L259.413 63.5562C260.473 59.9798 260.738 57.3305 260.208 55.6085C259.811 53.7541 257.956 52.5619 254.645 52.0321L250.472 51.2373C248.75 50.84 247.889 49.979 247.889 48.6544C247.889 47.3297 248.816 46.6674 250.671 46.6674H275.905C277.759 46.6674 278.686 47.396 278.686 48.853C278.686 50.1777 277.891 51.1049 276.302 51.6347L274.514 52.2308C272.527 52.8931 270.871 54.0852 269.546 55.8072C268.222 57.5292 266.831 60.5096 265.374 64.7483L235.769 157.14C232.855 166.412 230.206 173.3 227.821 177.804C225.569 182.307 223.384 185.222 221.264 186.546C219.145 188.003 216.695 188.732 213.913 188.732ZM273.034 148C271.445 148 270.65 147.271 270.65 145.814C270.65 144.49 271.379 143.695 272.836 143.43L275.617 143.033C278.399 142.635 280.187 141.841 280.982 140.648C281.909 139.456 282.373 137.469 282.373 134.688V20.8376C282.373 18.4533 281.976 16.8637 281.181 16.069C280.518 15.1418 279.26 14.5457 277.406 14.2808L273.233 13.6847C271.776 13.4198 271.047 12.625 271.047 11.3004C271.047 9.97578 271.776 9.18102 273.233 8.91609C276.942 8.12133 280.055 7.1941 282.572 6.13441C285.088 5.07472 287.208 4.01504 288.93 2.95536C291.049 1.63075 292.639 0.968448 293.698 0.968448C295.155 0.968448 295.884 2.02813 295.884 4.1475V87.3992C295.884 88.7238 296.414 89.5848 297.473 89.9821C298.666 90.2471 299.791 89.7834 300.851 88.5913L324.098 63.5562C326.88 60.5096 328.006 57.9928 327.476 56.0059C327.078 53.8866 325.555 52.5619 322.906 52.0321L318.336 51.2373C316.614 50.84 315.753 49.979 315.753 48.6544C315.753 47.3297 316.68 46.6674 318.535 46.6674H352.71C354.564 46.6674 355.491 47.396 355.491 48.853C355.491 50.3101 354.63 51.1049 352.908 51.2373L351.12 51.436C348.073 51.701 345.027 52.8931 341.98 55.0125C338.934 56.9994 335.291 60.1785 331.052 64.5497L318.733 77.6633C315.952 80.7099 315.289 83.6902 316.746 86.6044L341.782 134.688C343.239 137.337 344.828 139.258 346.55 140.45C348.272 141.642 350.392 142.503 352.908 143.033L354.895 143.43C356.485 143.827 357.28 144.622 357.28 145.814C357.28 147.271 356.352 148 354.498 148H319.926C318.071 148 317.144 147.271 317.144 145.814C317.144 144.49 318.005 143.695 319.727 143.43L323.105 143.033C328.138 142.37 329.198 139.125 326.284 133.297L307.408 96.539C306.746 95.2143 305.752 94.4858 304.428 94.3534C303.235 94.2209 302.11 94.6845 301.05 95.7442L298.864 97.9298C297.672 99.1219 296.877 100.314 296.48 101.506C296.083 102.698 295.884 104.023 295.884 105.48V134.688C295.884 137.469 296.281 139.456 297.076 140.648C298.003 141.841 299.858 142.569 302.639 142.834L308.004 143.43C309.461 143.695 310.19 144.49 310.19 145.814C310.19 147.271 309.395 148 307.805 148H273.034ZM381.112 149.788C374.753 149.788 369.058 147.669 364.024 143.43C358.991 139.191 354.951 133.231 351.904 125.548C348.99 117.733 347.533 108.725 347.533 98.5259C347.533 88.0615 349.056 78.8554 352.103 70.9078C355.149 62.9601 359.322 56.7345 364.62 52.2308C369.919 47.7271 375.813 45.4753 382.304 45.4753C390.119 45.4753 396.411 48.7206 401.179 55.2112C406.08 61.5693 408.531 71.9675 408.531 86.4057C408.531 90.7769 406.875 92.9625 403.564 92.9625H365.812C363.163 92.9625 361.839 94.4858 361.839 97.5324C361.839 111.573 363.892 122.104 367.998 129.124C372.104 136.145 377.336 139.655 383.695 139.655C388.728 139.655 392.834 137.867 396.013 134.29C399.192 130.714 401.775 124.687 403.762 116.209C404.16 114.752 405.021 114.024 406.345 114.024C407.935 114.024 408.531 115.348 408.134 117.998C406.014 129.787 402.636 138.065 398 142.834C393.364 147.47 387.735 149.788 381.112 149.788ZM365.216 87.9952H385.284C391.642 87.9952 394.821 84.6837 394.821 78.0607C394.821 69.4507 393.762 62.6952 391.642 57.7942C389.523 52.8931 386.344 50.4426 382.105 50.4426C376.939 50.4426 372.568 53.4229 368.991 59.3837C365.547 65.3444 363.296 73.8219 362.236 84.8162C361.971 86.9355 362.964 87.9952 365.216 87.9952ZM429.487 149.788C423.923 149.788 419.353 148.066 415.777 144.622C412.201 141.046 410.412 136.343 410.412 130.515C410.412 124.819 412.201 119.455 415.777 114.421C419.353 109.255 424.254 104.619 430.48 100.513C436.706 96.4065 443.792 93.095 451.74 90.5782C453.462 90.0484 454.323 88.9225 454.323 87.2005V69.1196C454.323 62.7614 453.33 58.2578 451.343 55.6085C449.356 52.8269 446.64 51.436 443.196 51.436C439.885 51.436 436.838 52.9593 434.057 56.0059C431.407 58.9201 429.487 63.8874 428.295 70.9078C427.632 75.1465 426.175 78.2594 423.923 80.2463C421.804 82.1007 419.618 83.0279 417.367 83.0279C413.658 83.0279 411.803 81.1735 411.803 77.4646C411.803 73.6232 412.863 69.8481 414.982 66.1392C417.234 62.2978 420.148 58.8538 423.725 55.8072C427.301 52.6282 431.209 50.1114 435.447 48.257C439.686 46.4025 443.925 45.4753 448.164 45.4753C461.277 45.4753 467.834 53.0918 467.834 68.3248V129.124C467.834 134.688 469.225 137.469 472.007 137.469C473.729 137.469 475.318 136.343 476.775 134.092C478.232 131.707 478.961 127.733 478.961 122.17C478.961 120.051 479.822 118.991 481.544 118.991C483.133 118.991 483.928 120.117 483.928 122.369C483.928 132.038 482.206 139.059 478.762 143.43C475.451 147.669 471.675 149.788 467.437 149.788C464.258 149.788 461.741 148.53 459.886 146.013C458.032 143.364 456.774 140.251 456.111 136.675C455.979 135.35 455.383 134.688 454.323 134.688C453.396 134.555 452.469 135.151 451.541 136.476C448.362 140.847 445.117 144.159 441.806 146.41C438.494 148.662 434.388 149.788 429.487 149.788ZM434.851 140.648C438.295 140.648 441.474 139.456 444.389 137.072C447.303 134.555 449.687 131.244 451.541 127.137C453.396 123.031 454.323 118.395 454.323 113.229V98.7246C454.323 96.2078 452.932 95.4793 450.151 96.539C442.07 99.4531 435.779 103.493 431.275 108.659C426.904 113.693 424.718 119.786 424.718 126.939C424.718 136.079 428.096 140.648 434.851 140.648ZM507.655 59.3837C513.086 50.1114 519.642 45.4753 527.325 45.4753C531.696 45.4753 534.942 46.7999 537.061 49.4491C539.18 51.9659 540.24 54.8138 540.24 57.9928C540.24 60.5096 539.578 62.5627 538.253 64.1523C537.061 65.7418 535.14 66.5366 532.491 66.5366C530.372 66.5366 528.782 66.073 527.722 65.1457C526.795 64.086 526 62.8939 525.338 61.5693C524.808 60.2447 524.146 59.1188 523.351 58.1915C522.556 57.1319 521.232 56.602 519.377 56.602C516.993 56.602 514.741 58.0591 512.622 60.9732C510.503 63.7549 508.714 67.53 507.257 72.2986C505.933 77.0672 505.27 82.4981 505.27 88.5913V134.688C505.27 137.469 505.668 139.456 506.462 140.648C507.39 141.841 509.244 142.569 512.026 142.834L517.391 143.43C518.848 143.695 519.576 144.424 519.576 145.616C519.576 147.205 518.583 148 516.596 148H483.017C481.03 148 480.037 147.271 480.037 145.814C480.037 144.622 480.898 143.827 482.62 143.43L485.004 143.033C487.786 142.503 489.574 141.708 490.368 140.648C491.296 139.456 491.759 137.469 491.759 134.688V67.9274C491.759 65.5431 491.362 63.9536 490.567 63.1588C489.905 62.2316 488.647 61.6355 486.792 61.3706L482.62 60.7745C480.898 60.6421 480.037 59.9135 480.037 58.5889C480.037 57.5292 481.096 56.8007 483.216 56.4033C487.322 55.741 490.435 54.6813 492.554 53.2243C494.806 51.7672 497.124 49.979 499.508 47.8596C500.7 46.6674 501.694 46.0714 502.489 46.0714C503.681 46.0714 504.277 46.8661 504.277 48.4557V59.185C504.277 60.1122 504.674 60.7083 505.469 60.9732C506.264 61.1057 506.992 60.5758 507.655 59.3837ZM561.571 149.788C556.935 149.788 553.094 148.199 550.047 145.02C547.133 141.708 545.676 136.343 545.676 128.926V54.6151C545.676 53.0256 544.881 52.2308 543.292 52.2308H537.53C535.41 52.2308 534.351 51.436 534.351 49.8465C534.351 48.7868 534.947 47.8596 536.139 47.0648C540.51 44.0182 544.02 40.7729 546.67 37.3289C549.319 33.7525 551.637 28.9177 553.624 22.8245C554.551 20.0428 555.677 18.652 557.001 18.652C558.459 18.652 559.187 19.7117 559.187 21.831V43.8858C559.187 45.7402 560.114 46.6674 561.969 46.6674H574.884C577.003 46.6674 578.063 47.5947 578.063 49.4491C578.063 51.3036 577.003 52.2308 574.884 52.2308H561.969C560.114 52.2308 559.187 53.158 559.187 55.0125V129.124C559.187 132.038 559.651 134.357 560.578 136.079C561.505 137.668 563.227 138.463 565.744 138.463C568.526 138.463 570.777 137.072 572.499 134.29C574.354 131.509 575.546 127.005 576.076 120.779C576.341 118.925 577.202 117.998 578.659 117.998C580.248 117.998 581.043 118.991 581.043 120.978C580.646 131.177 578.526 138.529 574.685 143.033C570.976 147.536 566.605 149.788 561.571 149.788ZM597.095 149.788C594.181 149.788 591.664 148.861 589.545 147.007C587.558 145.02 586.565 142.437 586.565 139.258C586.565 136.211 587.558 133.76 589.545 131.906C591.664 129.919 594.181 128.926 597.095 128.926C599.744 128.926 602.129 129.919 604.248 131.906C606.367 133.76 607.427 136.211 607.427 139.258C607.427 142.437 606.367 145.02 604.248 147.007C602.129 148.861 599.744 149.788 597.095 149.788ZM640.325 149.788C634.496 149.788 629.198 147.868 624.429 144.026C619.793 140.052 616.084 134.423 613.303 127.137C610.521 119.852 609.13 111.176 609.13 101.109C609.13 89.8497 610.786 80.0476 614.097 71.7025C617.541 63.3575 622.177 56.9332 628.006 52.4295C633.834 47.7934 640.325 45.4753 647.477 45.4753C653.571 45.4753 658.339 46.6674 661.783 49.0517C663.108 49.979 663.77 51.436 663.77 53.4229L664.168 77.6633C664.168 79.6502 663.373 80.6437 661.783 80.6437C660.326 80.6437 659.399 79.7827 659.002 78.0607C657.147 70.7753 655.359 65.1457 653.637 61.1719C651.915 57.1981 650.127 54.4826 648.272 53.0256C646.418 51.436 644.365 50.6413 642.113 50.6413C639.464 50.6413 636.682 52.1646 633.768 55.2112C630.986 58.2578 628.602 63.225 626.615 70.113C624.76 76.8685 623.833 85.8096 623.833 96.9363C623.833 111.11 625.621 121.773 629.198 128.926C632.907 136.079 637.675 139.655 643.504 139.655C648.14 139.655 651.981 137.734 655.028 133.893C658.207 130.052 660.922 123.097 663.174 113.03C663.571 111.573 664.366 110.845 665.558 110.845C667.148 110.845 667.744 112.169 667.347 114.819C665.889 124.091 663.836 131.31 661.187 136.476C658.67 141.509 655.624 145.02 652.047 147.007C648.603 148.861 644.696 149.788 640.325 149.788ZM704.277 149.788C697.521 149.788 691.428 147.536 685.997 143.033C680.699 138.397 676.46 132.105 673.281 124.157C670.102 116.209 668.512 107.335 668.512 97.5324C668.512 87.7303 670.102 78.9217 673.281 71.1065C676.46 63.2913 680.765 57.0656 686.196 52.4295C691.627 47.7934 697.654 45.4753 704.277 45.4753C711.032 45.4753 717.059 47.7934 722.358 52.4295C727.789 57.0656 732.094 63.2913 735.273 71.1065C738.452 78.9217 740.041 87.7303 740.041 97.5324C740.041 107.335 738.452 116.209 735.273 124.157C732.226 132.105 727.987 138.397 722.556 143.033C717.125 147.536 711.032 149.788 704.277 149.788ZM704.277 144.821C718.053 144.821 724.941 129.058 724.941 97.5324C724.941 66.1392 718.053 50.4426 704.277 50.4426C690.501 50.4426 683.613 66.1392 683.613 97.5324C683.613 129.058 690.501 144.821 704.277 144.821ZM743.062 148C741.075 148 740.082 147.271 740.082 145.814C740.082 144.622 740.943 143.827 742.664 143.43L745.049 143.033C747.83 142.503 749.619 141.708 750.413 140.648C751.341 139.456 751.804 137.469 751.804 134.688V67.9274C751.804 65.5431 751.407 63.9536 750.612 63.1588C749.95 62.2316 748.691 61.6355 746.837 61.3706L742.664 60.7745C740.943 60.6421 740.082 59.9135 740.082 58.5889C740.082 57.5292 741.141 56.8007 743.261 56.4033C747.367 55.741 750.48 54.6813 752.599 53.2243C754.851 51.7672 757.169 49.979 759.553 47.8596C760.745 46.6674 761.739 46.0714 762.534 46.0714C763.726 46.0714 764.322 46.8661 764.322 48.4557V57.3968C764.322 58.324 764.719 59.0525 765.514 59.5824C766.309 59.9798 767.17 59.7148 768.097 58.7876C773.528 53.6216 778.23 50.1114 782.204 48.257C786.31 46.4025 790.417 45.4753 794.523 45.4753C798.364 45.4753 801.742 46.535 804.656 48.6544C807.703 50.6413 809.955 53.6879 811.412 57.7942C811.809 58.8538 812.471 59.5161 813.399 59.7811C814.458 59.9135 815.452 59.5161 816.379 58.5889C821.81 53.5554 826.512 50.1114 830.486 48.257C834.46 46.4025 838.5 45.4753 842.606 45.4753C848.17 45.4753 852.673 47.5947 856.117 51.8334C859.694 55.9397 861.482 62.0329 861.482 70.113V134.688C861.482 137.469 861.879 139.456 862.674 140.648C863.601 141.708 865.456 142.437 868.237 142.834L872.609 143.43C874.066 143.695 874.794 144.49 874.794 145.814C874.794 147.271 873.999 148 872.41 148H838.434C836.579 148 835.652 147.271 835.652 145.814C835.652 144.49 836.381 143.695 837.838 143.43L840.619 143.033C843.666 142.635 845.653 141.841 846.58 140.648C847.507 139.456 847.971 137.469 847.971 134.688V72.2986C847.971 65.808 846.779 61.2381 844.394 58.5889C842.143 55.9397 839.03 54.6151 835.056 54.6151C831.082 54.6151 827.439 55.8735 824.128 58.3902C820.949 60.7745 818.366 64.0198 816.379 68.1261C814.392 72.0999 813.399 76.5374 813.399 81.4384V134.688C813.399 137.469 813.862 139.456 814.789 140.648C815.717 141.708 817.637 142.437 820.551 142.834L824.923 143.43C826.38 143.695 827.108 144.49 827.108 145.814C827.108 147.271 826.314 148 824.724 148H790.946C789.092 148 788.165 147.271 788.165 145.814C788.165 144.49 788.893 143.695 790.35 143.43L793.132 143.033C795.914 142.635 797.702 141.841 798.497 140.648C799.424 139.456 799.888 137.469 799.888 134.688V72.2986C799.888 65.808 798.695 61.2381 796.311 58.5889C794.059 55.9397 790.946 54.6151 786.973 54.6151C782.999 54.6151 779.356 55.8735 776.045 58.3902C772.866 60.7745 770.283 64.0198 768.296 68.1261C766.309 72.0999 765.315 76.5374 765.315 81.4384V134.688C765.315 137.469 765.713 139.456 766.507 140.648C767.435 141.841 769.289 142.569 772.071 142.834L777.435 143.43C778.893 143.695 779.621 144.424 779.621 145.616C779.621 147.205 778.628 148 776.641 148H743.062Z" fill="black"/>
</svg>
