<svg width="1386" height="170" viewBox="0 0 1386 170" fill="none" xmlns="http://www.w3.org/2000/svg">
<path d="M0.0923353 137.597V0.636069H27.8676V54.2711H81.6942V0.636069H109.469V137.597H81.6942V77.2575H27.8676V137.597H0.0923353ZM128.369 137.597V39.3299H154.42V137.597H128.369ZM128.369 24.0056V0.636069H154.42V24.0056H128.369ZM197.635 56.5697V39.3299H211.235V8.68132H236.712V39.3299H253.569V56.5697H236.712V108.672C236.712 115.185 239.968 118.442 246.481 118.442L254.143 118.25V137.405C250.185 137.661 244.757 137.788 237.861 137.788C230.327 137.788 224.006 136.001 218.897 132.425C213.789 128.722 211.235 122.656 211.235 114.227V56.5697H197.635ZM293.035 0.636069V52.164H293.609C297.313 46.8005 301.335 42.9056 305.677 40.4792C310.147 37.9252 315.638 36.6482 322.151 36.6482C332.239 36.6482 340.412 40.0961 346.67 46.9921C352.927 53.7603 356.056 62.5717 356.056 73.4265V137.597H330.005V77.2575C330.005 71.894 328.472 67.5521 325.407 64.2319C322.47 60.9116 318.32 59.2515 312.956 59.2515C307.21 59.2515 302.421 61.3586 298.59 65.5728C294.886 69.7869 293.035 75.2143 293.035 81.8548V137.597H266.983V0.636069H293.035ZM418.278 140.47C402.443 140.47 389.992 135.618 380.925 125.912C371.858 116.079 367.325 103.564 367.325 88.3676C367.325 73.6819 371.858 61.4224 380.925 51.5893C389.992 41.6285 401.613 36.6482 415.788 36.6482C431.24 36.6482 443.18 42.0117 451.608 52.7387C460.037 63.4657 464.251 77.8322 464.251 95.8382H392.993C394.014 103.628 396.632 109.694 400.846 114.036C405.061 118.25 410.807 120.357 418.086 120.357C427.664 120.357 433.985 116.334 437.05 108.289H462.718C460.803 117.484 455.95 125.146 448.16 131.276C440.37 137.405 430.41 140.47 418.278 140.47ZM416.171 56.7613C403.528 56.7613 395.93 63.7849 393.376 77.8322H437.05C436.667 71.5748 434.56 66.5305 430.729 62.6994C426.898 58.7407 422.045 56.7613 416.171 56.7613ZM501.402 39.3299V55.0373H501.976C505.041 49.2907 508.425 45.0765 512.129 42.3948C515.832 39.5853 520.493 38.1806 526.112 38.1806C528.794 38.1806 530.837 38.436 532.242 38.9468V61.7417H531.667C522.856 60.8478 515.768 62.7633 510.405 67.4883C505.041 72.2133 502.359 79.62 502.359 89.7085V137.597H476.308V39.3299H501.402ZM586.823 140.47C570.988 140.47 558.537 135.618 549.47 125.912C540.403 116.079 535.869 103.564 535.869 88.3676C535.869 73.6819 540.403 61.4224 549.47 51.5893C558.537 41.6285 570.157 36.6482 584.332 36.6482C599.784 36.6482 611.725 42.0117 620.153 52.7387C628.581 63.4657 632.796 77.8322 632.796 95.8382H561.538C562.559 103.628 565.177 109.694 569.391 114.036C573.605 118.25 579.352 120.357 586.631 120.357C596.209 120.357 602.53 116.334 605.595 108.289H631.263C629.348 117.484 624.495 125.146 616.705 131.276C608.915 137.405 598.954 140.47 586.823 140.47ZM584.716 56.7613C572.073 56.7613 564.475 63.7849 561.921 77.8322H605.595C605.212 71.5748 603.105 66.5305 599.274 62.6994C595.443 58.7407 590.59 56.7613 584.716 56.7613ZM642.577 169.395V160.009C651.771 155.284 656.369 147.813 656.369 137.597H642.385V109.822H670.352V136.064C670.352 145.259 667.67 152.73 662.307 158.476C657.071 164.351 650.494 167.99 642.577 169.395ZM720.107 137.597V0.636069H747.882V137.597H720.107ZM764.707 51.9724V42.9694C768.155 41.8201 771.156 39.713 773.71 36.6482C776.392 33.5833 777.733 29.8799 777.733 25.538H765.09V0.636069H790.95V23.2394C790.95 31.4124 788.332 37.989 783.096 42.9694C777.988 47.8221 771.858 50.8231 764.707 51.9724ZM804.606 137.597V39.3299H829.699V52.5471H830.274C836.531 41.9478 846.045 36.6482 858.815 36.6482C864.945 36.6482 870.372 38.2444 875.097 41.437C879.95 44.5019 883.59 48.6522 886.016 53.888H886.399C893.55 42.3948 903.383 36.6482 915.898 36.6482C926.115 36.6482 934.032 39.7769 939.651 46.0343C945.398 52.164 948.271 60.6562 948.271 71.5109V137.597H922.22V75.9166C922.22 64.6788 917.175 59.0599 907.087 59.0599C901.596 59.0599 897.254 61.0393 894.061 64.9981C890.996 68.8292 889.464 74.0011 889.464 80.5139V137.597H863.413V75.9166C863.413 64.6788 858.368 59.0599 848.28 59.0599C843.044 59.0599 838.766 61.0393 835.446 64.9981C832.253 68.8292 830.657 74.0011 830.657 80.5139V137.597H804.606ZM998.64 137.597V0.636069H1037.72L1057.06 69.4038C1058.47 74.5119 1059.87 80.1947 1061.28 86.4521C1062.81 92.5818 1063.96 97.4345 1064.73 101.01L1065.68 106.374H1066.07C1068.49 93.2203 1071.3 80.897 1074.5 69.4038L1093.84 0.636069H1133.49V137.597H1107.63V59.0599L1108.78 30.71H1108.4C1106.36 41.437 1104.38 50.1208 1102.46 56.7613L1078.9 137.597H1052.28L1029.29 56.7613L1023.35 30.71H1022.97C1023.73 42.2032 1024.12 51.6532 1024.12 59.0599V137.597H998.64ZM1152.54 137.597V39.3299H1178.6V137.597H1152.54ZM1152.54 24.0056V0.636069H1178.6V24.0056H1152.54ZM1260.13 137.597L1232.54 92.7734L1221.24 104.458V137.597H1195.38V0.636069H1221.24V76.4913L1256.11 39.3299H1287.33L1251.12 76.6829L1291.73 137.597H1260.13ZM1339.38 140.47C1323.55 140.47 1311.1 135.618 1302.03 125.912C1292.96 116.079 1288.43 103.564 1288.43 88.3676C1288.43 73.6819 1292.96 61.4224 1302.03 51.5893C1311.1 41.6285 1322.72 36.6482 1336.89 36.6482C1352.34 36.6482 1364.28 42.0117 1372.71 52.7387C1381.14 63.4657 1385.35 77.8322 1385.35 95.8382H1314.1C1315.12 103.628 1317.74 109.694 1321.95 114.036C1326.16 118.25 1331.91 120.357 1339.19 120.357C1348.77 120.357 1355.09 116.334 1358.15 108.289H1383.82C1381.91 117.484 1377.05 125.146 1369.26 131.276C1361.47 137.405 1351.51 140.47 1339.38 140.47ZM1337.27 56.7613C1324.63 56.7613 1317.03 63.7849 1314.48 77.8322H1358.15C1357.77 71.5748 1355.66 66.5305 1351.83 62.6994C1348 58.7407 1343.15 56.7613 1337.27 56.7613Z" fill="#090909"/>
</svg>
