<svg width="1130" height="169" viewBox="0 0 1130 169" fill="none" xmlns="http://www.w3.org/2000/svg">
<path d="M46.356 137V84.1312L0.766215 0.0391448H31.0317L51.7195 40.6485L60.7225 60.187H61.1056C64.5536 52.6525 67.6184 46.1397 70.3002 40.6485L90.6049 0.0391448H119.721L74.1313 84.1312V137H46.356ZM192.212 125.124C182.634 134.957 170.311 139.873 155.242 139.873C140.173 139.873 127.85 134.957 118.272 125.124C108.695 115.163 103.906 102.776 103.906 87.9623C103.906 73.1488 108.695 60.8255 118.272 50.9924C127.85 41.0316 140.173 36.0512 155.242 36.0512C170.311 36.0512 182.634 41.0316 192.212 50.9924C201.79 60.8255 206.579 73.1488 206.579 87.9623C206.579 102.776 201.79 115.163 192.212 125.124ZM155.242 119.952C163.032 119.952 169.098 117.078 173.44 111.332C177.909 105.458 180.144 97.6677 180.144 87.9623C180.144 78.2569 177.909 70.467 173.44 64.5927C169.098 58.7184 163.032 55.7813 155.242 55.7813C147.325 55.7813 141.195 58.7184 136.853 64.5927C132.511 70.3393 130.34 78.1292 130.34 87.9623C130.34 97.6677 132.511 105.458 136.853 111.332C141.195 117.078 147.325 119.952 155.242 119.952ZM213.606 168.798V159.412C222.801 154.687 227.398 147.216 227.398 137H213.415V109.225H241.382V135.468C241.382 144.662 238.7 152.133 233.336 157.879C228.1 163.754 221.524 167.393 213.606 168.798ZM290.945 137V0.0391448H330.021L349.368 68.8069C350.773 73.915 352.178 79.5978 353.583 85.8552C355.115 91.9849 356.264 96.8376 357.031 100.413L357.988 105.777H358.371C360.798 92.6234 363.607 80.3001 366.8 68.8069L386.147 0.0391448H425.798V137H399.939V58.463L401.088 30.1131H400.705C398.662 40.8401 396.682 49.5238 394.767 56.1644L371.206 137H344.58L321.593 56.1644L315.655 30.1131H315.272C316.038 41.6063 316.421 51.0563 316.421 58.463V137H290.945ZM444.849 137V38.733H470.9V137H444.849ZM444.849 23.4087V0.0391448H470.9V23.4087H444.849ZM552.432 137L524.848 92.1764L513.546 103.861V137H487.687V0.0391448H513.546V75.8944L548.409 38.733H579.632L543.429 76.0859L584.038 137H552.432ZM631.686 139.873C615.85 139.873 603.399 135.021 594.333 125.315C585.266 115.482 580.732 102.967 580.732 87.7707C580.732 73.0849 585.266 60.8255 594.333 50.9924C603.399 41.0316 615.02 36.0512 629.195 36.0512C644.647 36.0512 656.588 41.4147 665.016 52.1417C673.444 62.8687 677.658 77.2353 677.658 95.2413H606.4C607.422 103.031 610.04 109.097 614.254 113.439C618.468 117.653 624.215 119.76 631.494 119.76C641.072 119.76 647.393 115.738 650.458 107.692H676.126C674.21 116.887 669.358 124.549 661.568 130.679C653.778 136.808 643.817 139.873 631.686 139.873ZM629.578 56.1644C616.936 56.1644 609.338 63.188 606.784 77.2353H650.458C650.075 70.9778 647.968 65.9336 644.137 62.1025C640.305 58.1437 635.453 56.1644 629.578 56.1644ZM747.942 0.0391448V51.5671H748.517C752.22 46.2036 756.243 42.3086 760.585 39.8823C765.054 37.3283 770.545 36.0512 777.058 36.0512C787.147 36.0512 795.32 39.4992 801.577 46.3951C807.835 53.1634 810.963 61.9748 810.963 72.8295V137H784.912V76.6606C784.912 71.2971 783.38 66.9552 780.315 63.635C777.378 60.3147 773.227 58.6546 767.864 58.6546C762.117 58.6546 757.328 60.7617 753.497 64.9758C749.794 69.19 747.942 74.6174 747.942 81.2579V137H721.891V0.0391448H747.942ZM873.185 139.873C857.35 139.873 844.899 135.021 835.832 125.315C826.765 115.482 822.232 102.967 822.232 87.7707C822.232 73.0849 826.765 60.8255 835.832 50.9924C844.899 41.0316 856.52 36.0512 870.695 36.0512C886.147 36.0512 898.087 41.4147 906.516 52.1417C914.944 62.8687 919.158 77.2353 919.158 95.2413H847.9C848.922 103.031 851.54 109.097 855.754 113.439C859.968 117.653 865.715 119.76 872.994 119.76C882.571 119.76 888.893 115.738 891.958 107.692H917.626C915.71 116.887 910.857 124.549 903.068 130.679C895.278 136.808 885.317 139.873 873.185 139.873ZM871.078 56.1644C858.436 56.1644 850.837 63.188 848.283 77.2353H891.958C891.574 70.9778 889.467 65.9336 885.636 62.1025C881.805 58.1437 876.952 56.1644 871.078 56.1644ZM956.309 38.733V54.4404H956.884C959.949 48.6938 963.333 44.4796 967.036 41.7978C970.739 38.9884 975.401 37.5837 981.019 37.5837C983.701 37.5837 985.744 37.8391 987.149 38.3499V61.1448H986.575C977.763 60.2508 970.676 62.1664 965.312 66.8914C959.949 71.6164 957.267 79.0231 957.267 89.1116V137H931.216V38.733H956.309ZM1041.73 139.873C1025.89 139.873 1013.44 135.021 1004.38 125.315C995.31 115.482 990.777 102.967 990.777 87.7707C990.777 73.0849 995.31 60.8255 1004.38 50.9924C1013.44 41.0316 1025.06 36.0512 1039.24 36.0512C1054.69 36.0512 1066.63 41.4147 1075.06 52.1417C1083.49 62.8687 1087.7 77.2353 1087.7 95.2413H1016.44C1017.47 103.031 1020.08 109.097 1024.3 113.439C1028.51 117.653 1034.26 119.76 1041.54 119.76C1051.12 119.76 1057.44 115.738 1060.5 107.692H1086.17C1084.25 116.887 1079.4 124.549 1071.61 130.679C1063.82 136.808 1053.86 139.873 1041.73 139.873ZM1039.62 56.1644C1026.98 56.1644 1019.38 63.188 1016.83 77.2353H1060.5C1060.12 70.9778 1058.01 65.9336 1054.18 62.1025C1050.35 58.1437 1045.5 56.1644 1039.62 56.1644ZM1109.34 96.9653L1102.06 30.3046V0.0391448H1129.26V30.3046L1121.98 96.9653H1109.34ZM1101.68 137V109.225H1129.64V137H1101.68Z" fill="#090909"/>
</svg>
