<svg width="1355" height="143" viewBox="0 0 1355 143" fill="none" xmlns="http://www.w3.org/2000/svg">
<path d="M66.4917 142.873C47.2087 142.873 31.3736 136.233 18.9864 122.952C6.727 109.543 0.597287 92.5585 0.597287 71.9985C0.597287 51.3107 6.5993 34.1985 18.6033 20.6621C30.6074 7.12562 46.5063 0.357394 66.3002 0.357394C82.6461 0.357394 95.7356 4.69928 105.569 13.383C115.529 21.9391 121.276 32.9854 122.809 46.5218H95.2248C93.9478 39.4982 90.7552 33.9431 85.6471 29.8567C80.6667 25.7702 74.2177 23.7269 66.3002 23.7269C54.1685 23.7269 44.91 28.1965 38.5249 37.1357C32.1398 46.0749 28.9472 57.6958 28.9472 71.9985C28.9472 86.1734 32.3313 97.7305 39.0996 106.67C45.9955 115.609 55.1262 120.078 66.4917 120.078C74.537 120.078 81.2414 117.907 86.6049 113.566C91.9684 109.096 95.0971 103.222 95.991 95.9427H123.192C122.425 108.841 117.381 119.631 108.059 128.315C97.715 138.021 83.8593 142.873 66.4917 142.873ZM161.425 3.03914V54.5671H161.999C165.703 49.2036 169.725 45.3086 174.067 42.8823C178.537 40.3283 184.028 39.0512 190.541 39.0512C200.629 39.0512 208.802 42.4992 215.06 49.3951C221.317 56.1634 224.446 64.9748 224.446 75.8295V140H198.394V79.6606C198.394 74.2971 196.862 69.9552 193.797 66.635C190.86 63.3147 186.71 61.6546 181.346 61.6546C175.599 61.6546 170.811 63.7617 166.98 67.9758C163.276 72.19 161.425 77.6174 161.425 84.2579V140H135.373V3.03914H161.425ZM286.668 142.873C270.833 142.873 258.382 138.021 249.315 128.315C240.248 118.482 235.714 105.967 235.714 90.7707C235.714 76.0849 240.248 63.8255 249.315 53.9924C258.382 44.0316 270.003 39.0512 284.177 39.0512C299.629 39.0512 311.57 44.4147 319.998 55.1417C328.426 65.8687 332.641 80.2353 332.641 98.2413H261.383C262.404 106.031 265.022 112.097 269.236 116.439C273.45 120.653 279.197 122.76 286.476 122.76C296.054 122.76 302.375 118.738 305.44 110.692H331.108C329.193 119.887 324.34 127.549 316.55 133.679C308.76 139.808 298.799 142.873 286.668 142.873ZM284.561 59.1644C271.918 59.1644 264.32 66.188 261.766 80.2353H305.44C305.057 73.9778 302.95 68.9336 299.119 65.1025C295.288 61.1437 290.435 59.1644 284.561 59.1644ZM390.288 142.873C375.091 142.873 362.896 137.957 353.701 128.124C344.506 118.291 339.909 105.903 339.909 90.9623C339.909 76.0211 344.379 63.6339 353.318 53.8009C362.385 43.9678 374.261 39.0512 388.947 39.0512C401.334 39.0512 411.422 42.3076 419.212 48.8205C427.002 55.3333 431.791 64.0809 433.579 75.0633H408.102C407.208 70.5937 405.165 66.9542 401.972 64.1448C398.78 61.3353 394.821 59.9306 390.096 59.9306C382.434 59.9306 376.56 62.6762 372.473 68.1674C368.387 73.6586 366.344 81.2569 366.344 90.9623C366.344 100.54 368.323 108.138 372.282 113.757C376.24 119.248 382.051 121.994 389.713 121.994C401.079 121.994 407.655 116.439 409.443 105.329H434.537C433.643 116.183 429.237 125.187 421.319 132.338C413.402 139.361 403.058 142.873 390.288 142.873ZM510.645 140L483.061 95.1764L471.759 106.861V140H445.9V3.03914H471.759V78.8944L506.622 41.733H537.845L501.642 79.0859L542.251 140H510.645ZM576.897 58.9728V41.733H590.497V11.0844H615.974V41.733H632.831V58.9728H615.974V111.075C615.974 117.588 619.23 120.845 625.743 120.845L633.405 120.653V139.808C629.446 140.064 624.019 140.192 617.123 140.192C609.589 140.192 603.267 138.404 598.159 134.828C593.051 131.125 590.497 125.059 590.497 116.63V58.9728H576.897ZM672.297 3.03914V54.5671H672.871C676.575 49.2036 680.597 45.3086 684.939 42.8823C689.409 40.3283 694.9 39.0512 701.413 39.0512C711.501 39.0512 719.674 42.4992 725.932 49.3951C732.189 56.1634 735.318 64.9748 735.318 75.8295V140H709.266V79.6606C709.266 74.2971 707.734 69.9552 704.669 66.635C701.732 63.3147 697.582 61.6546 692.218 61.6546C686.472 61.6546 681.683 63.7617 677.852 67.9758C674.148 72.19 672.297 77.6174 672.297 84.2579V140H646.245V3.03914H672.297ZM797.54 142.873C781.705 142.873 769.254 138.021 760.187 128.315C751.12 118.482 746.586 105.967 746.586 90.7707C746.586 76.0849 751.12 63.8255 760.187 53.9924C769.254 44.0316 780.875 39.0512 795.05 39.0512C810.502 39.0512 822.442 44.4147 830.87 55.1417C839.298 65.8687 843.513 80.2353 843.513 98.2413H772.255C773.276 106.031 775.894 112.097 780.108 116.439C784.323 120.653 790.069 122.76 797.348 122.76C806.926 122.76 813.247 118.738 816.312 110.692H841.98C840.065 119.887 835.212 127.549 827.422 133.679C819.632 139.808 809.671 142.873 797.54 142.873ZM795.433 59.1644C782.79 59.1644 775.192 66.188 772.638 80.2353H816.312C815.929 73.9778 813.822 68.9336 809.991 65.1025C806.16 61.1437 801.307 59.1644 795.433 59.1644ZM855.57 140V41.733H880.664V54.9502H881.238C887.496 44.3509 897.009 39.0512 909.78 39.0512C915.909 39.0512 921.337 40.6475 926.062 43.8401C930.914 46.9049 934.554 51.0553 936.98 56.2911H937.363C944.515 44.7978 954.348 39.0512 966.863 39.0512C977.079 39.0512 984.996 42.1799 990.615 48.4374C996.362 54.5671 999.235 63.0593 999.235 73.914V140H973.184V78.3197C973.184 67.0819 968.14 61.463 958.051 61.463C952.56 61.463 948.218 63.4424 945.026 67.4012C941.961 71.2322 940.428 76.4042 940.428 82.917V140H914.377V78.3197C914.377 67.0819 909.333 61.463 899.244 61.463C894.008 61.463 889.73 63.4424 886.41 67.4012C883.218 71.2322 881.621 76.4042 881.621 82.917V140H855.57ZM1131.02 128.124C1121.44 137.957 1109.11 142.873 1094.05 142.873C1078.98 142.873 1066.65 137.957 1057.08 128.124C1047.5 118.163 1042.71 105.776 1042.71 90.9623C1042.71 76.1488 1047.5 63.8255 1057.08 53.9924C1066.65 44.0316 1078.98 39.0512 1094.05 39.0512C1109.11 39.0512 1121.44 44.0316 1131.02 53.9924C1140.59 63.8255 1145.38 76.1488 1145.38 90.9623C1145.38 105.776 1140.59 118.163 1131.02 128.124ZM1094.05 122.952C1101.84 122.952 1107.9 120.078 1112.24 114.332C1116.71 108.458 1118.95 100.668 1118.95 90.9623C1118.95 81.2569 1116.71 73.467 1112.24 67.5927C1107.9 61.7184 1101.84 58.7813 1094.05 58.7813C1086.13 58.7813 1080 61.7184 1075.66 67.5927C1071.31 73.3393 1069.14 81.1292 1069.14 90.9623C1069.14 100.668 1071.31 108.458 1075.66 114.332C1080 120.078 1086.13 122.952 1094.05 122.952ZM1244.65 140H1219.55V128.507H1218.98C1215.4 133.359 1211.45 136.935 1207.1 139.234C1202.89 141.532 1197.46 142.682 1190.82 142.682C1180.09 142.682 1171.73 139.489 1165.73 133.104C1159.73 126.719 1156.73 118.099 1156.73 107.244V41.733H1182.58V102.839C1182.58 114.715 1188.01 120.653 1198.87 120.653C1204.87 120.653 1209.66 118.61 1213.23 114.523C1216.81 110.437 1218.6 105.073 1218.6 98.4329V41.733H1244.65V140ZM1255.75 58.9728V41.733H1269.35V11.0844H1294.83V41.733H1311.69V58.9728H1294.83V111.075C1294.83 117.588 1298.09 120.845 1304.6 120.845L1312.26 120.653V139.808C1308.3 140.064 1302.87 140.192 1295.98 140.192C1288.44 140.192 1282.12 138.404 1277.01 134.828C1271.91 131.125 1269.35 125.059 1269.35 116.63V58.9728H1255.75ZM1334.68 99.9653L1327.4 33.3046V3.03914H1354.6V33.3046L1347.32 99.9653H1334.68ZM1327.02 140V112.225H1354.98V140H1327.02Z" fill="#090909"/>
</svg>
