<?xml version="1.0" encoding="UTF-8"?>
<svg id="Layer_2" data-name="Layer 2" xmlns="http://www.w3.org/2000/svg" viewBox="0 0 1010.77 669.98">
  <defs>
    <style>
      .cls-1 {
        fill: #fcfcfc;
      }
    </style>
  </defs>
  <g id="Layer_1-2" data-name="Layer 1">
    <g>
      <path class="cls-1" d="M387.48,0c29.68,.16,59.34,1.18,88.96,2.88,25.83,1.49,51.62,3.7,77.32,6.66,70.1,8.06,139.31,20.78,207.28,39.91,54.38,15.31,107.35,34.43,158.33,58.9,20.11,9.65,39.82,20.06,58.96,31.52,13.94,8.35,23.74,20.22,28.86,35.63,13.6,40.92-13.3,81.38-53,87.2-15.91,2.33-30.6-.75-44.33-8.83-20.77-12.23-42.17-23.24-64.13-33.16-44.39-20.05-90.37-35.59-137.43-47.98-36.45-9.6-73.32-17.23-110.56-23.1-24.01-3.79-48.1-6.92-72.29-9.42-41.97-4.35-84.05-6.54-126.23-6.98-30.8-.32-61.57,.4-92.3,2.22-22.71,1.34-45.36,3.41-67.97,6.07-40.79,4.79-81.19,11.67-121.02,21.74-10.8,2.73-21.47,5.94-32.21,8.9-22.4,6.18-43.09,2.54-61.1-12.15C4.84,143.87-3.15,122.37,1.12,97.38c4.41-25.85,19.78-43.52,44.76-51.99,17.73-6.02,35.96-10.37,54.18-14.68,27.13-6.41,54.5-11.62,82.07-15.69,19.18-2.83,38.45-5.16,57.74-7.2,18.63-1.97,37.3-3.63,55.99-4.81,18.47-1.17,36.99-1.67,55.5-2.29,12.04-.4,24.08-.5,36.13-.73Z"/>
      <path class="cls-1" d="M372.05,244.19c22.08,.78,44.17,1.19,66.22,2.45,18.03,1.04,36.03,2.85,53.99,4.74,60.69,6.39,120.34,18.17,178.94,35.14,68.16,19.73,133.49,46.27,195.1,81.68,6.19,3.56,12.36,7.14,18.4,10.95,14.18,8.93,23.03,21.69,25.7,38.22,5.01,30.99-15.39,57.21-42.89,63.2-14.67,3.19-28.42,.64-41.14-7.14-47.99-29.34-99.05-51.96-152.36-69.64-41.12-13.64-83.02-24.13-125.65-31.86-23.05-4.18-46.21-7.65-69.49-10.17-40.64-4.39-81.4-6.35-122.29-5.82-21.88,.28-43.72,1.32-65.52,3.09-20.9,1.69-41.71,4.2-62.45,7.39-30.44,4.69-60.54,10.96-90.24,19.1-6.88,1.89-13.68,4.07-20.59,5.84-19.14,4.91-36.44,.91-51.16-12.1-15.65-13.82-21.5-31.71-17.51-52.02,4.11-20.9,16.83-35.36,37.17-41.92,16.1-5.19,32.57-9.34,48.99-13.48,26.61-6.71,53.57-11.77,80.7-15.85,20.73-3.12,41.56-5.52,62.46-7.36,31.15-2.74,62.34-4.06,93.61-4.46Z"/>
      <path class="cls-1" d="M380.52,476.33c21.35-.27,43.21,.34,65.03,1.88,23.14,1.63,46.21,4.03,69.18,7.41,34.68,5.1,68.9,12.28,102.62,21.82,64.3,18.19,125.09,44.49,182.27,79.11,8.25,5,14.76,11.44,18.87,20.23,12.15,25.96-3.31,56.82-31.43,62.29-9.62,1.87-19.14,.98-28.04-3.58-2.58-1.32-5.09-2.78-7.57-4.27-57.38-34.52-118.77-59.21-183.82-74.96-25.17-6.09-50.58-10.87-76.23-14.26-40.76-5.39-81.73-7.56-122.85-7.04-21.43,.27-42.82,1.35-64.18,3.01-22.01,1.71-43.95,4.23-65.83,7.29-36.02,5.03-71.68,11.9-107.18,19.78-22.53,5-45.12-7.93-51.75-29.78-7.96-26.23,7.66-50.61,31.29-56.35,14.72-3.57,29.58-6.67,44.47-9.48,19.71-3.73,39.47-7.25,59.3-10.34,15.64-2.43,31.37-4.31,47.11-5.99,17.74-1.89,35.52-3.58,53.31-4.82,21.59-1.5,43.23-2.17,65.42-1.94Z"/>
    </g>
  </g>
</svg>