<svg width="1124" height="143" viewBox="0 0 1124 143" fill="none" xmlns="http://www.w3.org/2000/svg">
<path d="M66.4917 142.873C47.2087 142.873 31.3736 136.233 18.9864 122.952C6.727 109.543 0.597287 92.5585 0.597287 71.9985C0.597287 51.3107 6.5993 34.1985 18.6033 20.6621C30.6074 7.12562 46.5063 0.357394 66.3002 0.357394C82.6461 0.357394 95.7356 4.69928 105.569 13.383C115.529 21.9391 121.276 32.9854 122.809 46.5218H95.2248C93.9478 39.4982 90.7552 33.9431 85.6471 29.8567C80.6667 25.7702 74.2177 23.7269 66.3002 23.7269C54.1685 23.7269 44.91 28.1965 38.5249 37.1357C32.1398 46.0749 28.9472 57.6958 28.9472 71.9985C28.9472 86.1734 32.3313 97.7305 39.0996 106.67C45.9955 115.609 55.1262 120.078 66.4917 120.078C74.537 120.078 81.2414 117.907 86.6049 113.566C91.9684 109.096 95.0971 103.222 95.991 95.9427H123.192C122.425 108.841 117.381 119.631 108.059 128.315C97.715 138.021 83.8593 142.873 66.4917 142.873ZM161.425 3.03914V54.5671H161.999C165.703 49.2036 169.725 45.3086 174.067 42.8823C178.537 40.3283 184.028 39.0512 190.541 39.0512C200.629 39.0512 208.802 42.4992 215.06 49.3951C221.317 56.1634 224.446 64.9748 224.446 75.8295V140H198.394V79.6606C198.394 74.2971 196.862 69.9552 193.797 66.635C190.86 63.3147 186.71 61.6546 181.346 61.6546C175.599 61.6546 170.811 63.7617 166.98 67.9758C163.276 72.19 161.425 77.6174 161.425 84.2579V140H135.373V3.03914H161.425ZM286.668 142.873C270.833 142.873 258.382 138.021 249.315 128.315C240.248 118.482 235.714 105.967 235.714 90.7707C235.714 76.0849 240.248 63.8255 249.315 53.9924C258.382 44.0316 270.003 39.0512 284.177 39.0512C299.629 39.0512 311.57 44.4147 319.998 55.1417C328.426 65.8687 332.641 80.2353 332.641 98.2413H261.383C262.404 106.031 265.022 112.097 269.236 116.439C273.45 120.653 279.197 122.76 286.476 122.76C296.054 122.76 302.375 118.738 305.44 110.692H331.108C329.193 119.887 324.34 127.549 316.55 133.679C308.76 139.808 298.799 142.873 286.668 142.873ZM284.561 59.1644C271.918 59.1644 264.32 66.188 261.766 80.2353H305.44C305.057 73.9778 302.95 68.9336 299.119 65.1025C295.288 61.1437 290.435 59.1644 284.561 59.1644ZM390.288 142.873C375.091 142.873 362.896 137.957 353.701 128.124C344.506 118.291 339.909 105.903 339.909 90.9623C339.909 76.0211 344.379 63.6339 353.318 53.8009C362.385 43.9678 374.261 39.0512 388.947 39.0512C401.334 39.0512 411.422 42.3076 419.212 48.8205C427.002 55.3333 431.791 64.0809 433.579 75.0633H408.102C407.208 70.5937 405.165 66.9542 401.972 64.1448C398.78 61.3353 394.821 59.9306 390.096 59.9306C382.434 59.9306 376.56 62.6762 372.473 68.1674C368.387 73.6586 366.344 81.2569 366.344 90.9623C366.344 100.54 368.323 108.138 372.282 113.757C376.24 119.248 382.051 121.994 389.713 121.994C401.079 121.994 407.655 116.439 409.443 105.329H434.537C433.643 116.183 429.237 125.187 421.319 132.338C413.402 139.361 403.058 142.873 390.288 142.873ZM510.645 140L483.061 95.1764L471.759 106.861V140H445.9V3.03914H471.759V78.8944L506.622 41.733H537.845L501.642 79.0859L542.251 140H510.645ZM580.345 54.3755V45.3725C583.793 44.2232 586.794 42.1161 589.348 39.0512C592.03 35.9864 593.371 32.283 593.371 27.9411H580.728V3.03914H606.588V25.6425C606.588 33.8154 603.97 40.3921 598.734 45.3725C593.626 50.2252 587.496 53.2262 580.345 54.3755ZM655.932 142.873C640.097 142.873 627.646 138.021 618.579 128.315C609.512 118.482 604.979 105.967 604.979 90.7707C604.979 76.0849 609.512 63.8255 618.579 53.9924C627.646 44.0316 639.267 39.0512 653.442 39.0512C668.894 39.0512 680.834 44.4147 689.263 55.1417C697.691 65.8687 701.905 80.2353 701.905 98.2413H630.647C631.669 106.031 634.287 112.097 638.501 116.439C642.715 120.653 648.462 122.76 655.741 122.76C665.318 122.76 671.64 118.738 674.704 110.692H700.373C698.457 119.887 693.604 127.549 685.815 133.679C678.025 139.808 668.064 142.873 655.932 142.873ZM653.825 59.1644C641.183 59.1644 633.584 66.188 631.03 80.2353H674.704C674.321 73.9778 672.214 68.9336 668.383 65.1025C664.552 61.1437 659.699 59.1644 653.825 59.1644ZM713.962 140V41.733H739.056V54.9502H739.631C745.888 44.3509 755.402 39.0512 768.172 39.0512C774.302 39.0512 779.729 40.6475 784.454 43.8401C789.307 46.9049 792.946 51.0553 795.373 56.2911H795.756C802.907 44.7978 812.74 39.0512 825.255 39.0512C835.471 39.0512 843.389 42.1799 849.008 48.4374C854.754 54.5671 857.628 63.0593 857.628 73.914V140H831.576V78.3197C831.576 67.0819 826.532 61.463 816.444 61.463C810.952 61.463 806.611 63.4424 803.418 67.4012C800.353 71.2322 798.821 76.4042 798.821 82.917V140H772.769V78.3197C772.769 67.0819 767.725 61.463 757.637 61.463C752.401 61.463 748.123 63.4424 744.803 67.4012C741.61 71.2322 740.014 76.4042 740.014 82.917V140H713.962ZM967.762 140C966.485 138.34 965.463 134.7 964.697 129.081H964.314C961.505 133.296 957.929 136.552 953.587 138.851C949.245 141.149 943.179 142.299 935.389 142.299C925.046 142.299 916.745 139.681 910.488 134.445C904.23 129.209 901.101 121.802 901.101 112.225C901.101 102.264 904.549 94.9849 911.445 90.3876C918.341 85.6626 928.047 82.4062 940.561 80.6184C949.756 79.3413 956.013 78.0643 959.334 76.7873C962.654 75.3826 964.314 72.9562 964.314 69.5083C964.314 65.9326 962.909 63.1231 960.1 61.0799C957.29 58.909 953.204 57.8235 947.84 57.8235C935.964 57.8235 929.643 62.4208 928.877 71.6153H905.699C906.082 62.2931 909.849 54.5671 917 48.4374C924.152 42.3076 934.496 39.2428 948.032 39.2428C975.616 39.2428 989.408 51.3107 989.408 75.4464V125.442C989.408 132.849 990.557 137.382 992.856 139.042V140H967.762ZM941.711 124.101C948.862 124.101 954.481 122.249 958.567 118.546C962.782 114.843 964.889 110.437 964.889 105.329V90.5792C962.079 92.2393 956.013 94.1548 946.691 96.3258C939.284 97.9859 934.049 99.9014 930.984 102.072C927.919 104.116 926.386 107.308 926.386 111.65C926.386 119.951 931.495 124.101 941.711 124.101ZM1006.35 140V3.03914H1032.4V140H1006.35ZM1049.94 140V3.03914H1075.99V140H1049.94ZM1102.72 99.9653L1095.44 33.3046V3.03914H1122.64V33.3046L1115.36 99.9653H1102.72ZM1095.06 140V112.225H1123.02V140H1095.06Z" fill="#090909"/>
</svg>
